<svg width="123" height="62" viewBox="0 0 123 62" fill="none" xmlns="http://www.w3.org/2000/svg">
<path d="M45.397 41.324C43.957 41.324 42.688 41.0945 41.59 40.6355C40.501 40.1765 39.646 39.4925 39.025 38.5835C38.413 37.6655 38.107 36.527 38.107 35.168C38.107 35.024 38.107 34.8935 38.107 34.7765C38.107 34.6505 38.107 34.5155 38.107 34.3715H42.3055C42.3055 34.5065 42.3055 34.628 42.3055 34.736C42.3055 34.835 42.3055 34.952 42.3055 35.087C42.3055 36.014 42.5665 36.725 43.0885 37.22C43.6105 37.715 44.3845 37.9625 45.4105 37.9625C46.4455 37.9625 47.242 37.8005 47.8 37.4765C48.358 37.1435 48.637 36.599 48.637 35.843C48.637 35.312 48.4255 34.844 48.0025 34.439C47.5885 34.034 47.0215 33.674 46.3015 33.359C45.5905 33.035 44.776 32.7335 43.858 32.4545C42.859 32.1395 41.932 31.7255 41.077 31.2125C40.222 30.6995 39.5335 30.047 39.0115 29.255C38.4985 28.463 38.242 27.4865 38.242 26.3255C38.242 25.1555 38.5525 24.161 39.1735 23.342C39.7945 22.514 40.6405 21.884 41.7115 21.452C42.7825 21.011 43.993 20.7905 45.343 20.7905C46.756 20.7905 48.0025 21.011 49.0825 21.452C50.1715 21.884 51.022 22.5365 51.634 23.4095C52.255 24.2735 52.5655 25.3535 52.5655 26.6495C52.5655 26.7935 52.5655 26.9285 52.5655 27.0545C52.5655 27.1715 52.5655 27.3065 52.5655 27.4595H48.3805C48.3805 27.3605 48.3805 27.257 48.3805 27.149C48.3805 27.041 48.3805 26.9375 48.3805 26.8385C48.3805 25.9655 48.1375 25.295 47.6515 24.827C47.1745 24.359 46.423 24.125 45.397 24.125C44.407 24.125 43.6375 24.305 43.0885 24.665C42.5485 25.025 42.2785 25.5785 42.2785 26.3255C42.2785 26.8655 42.472 27.3245 42.859 27.7025C43.255 28.0805 43.795 28.418 44.479 28.715C45.163 29.012 45.9415 29.309 46.8145 29.606C48.0025 30.02 49.0375 30.479 49.9195 30.983C50.8105 31.478 51.499 32.1035 51.985 32.8595C52.471 33.6065 52.714 34.5605 52.714 35.7215C52.714 36.9095 52.408 37.922 51.796 38.759C51.184 39.596 50.3245 40.235 49.2175 40.676C48.1195 41.108 46.846 41.324 45.397 41.324ZM70.4003 33.8045C70.4003 36.3245 69.7343 38.21 68.4023 39.461C67.0703 40.703 65.2478 41.324 62.9348 41.324C60.6128 41.324 58.7858 40.703 57.4538 39.461C56.1308 38.21 55.4693 36.3245 55.4693 33.8045C55.4693 33.4625 55.4693 33.098 55.4693 32.711C55.4693 32.324 55.4693 31.919 55.4693 31.496V21.0875H59.6678V32.09C59.6678 32.432 59.6678 32.7515 59.6678 33.0485C59.6678 33.3455 59.6678 33.62 59.6678 33.872C59.6678 35.276 59.9243 36.311 60.4373 36.977C60.9503 37.634 61.7828 37.9625 62.9348 37.9625C64.0778 37.9625 64.9103 37.634 65.4323 36.977C65.9543 36.311 66.2153 35.276 66.2153 33.872V21.0875H70.4003V33.8045ZM80.2494 40.811H83.8134C83.8134 41.243 83.9619 41.603 84.2589 41.891C84.5649 42.188 84.9294 42.422 85.3524 42.593C85.7754 42.764 86.1759 42.89 86.5539 42.971C86.9409 43.052 87.2064 43.1015 87.3504 43.1195L86.1624 45.914C86.0274 45.905 85.7394 45.86 85.2984 45.779C84.8664 45.707 84.3624 45.572 83.7864 45.374C83.2194 45.176 82.6659 44.888 82.1259 44.51C81.5859 44.141 81.1359 43.655 80.7759 43.052C80.4249 42.449 80.2494 41.702 80.2494 40.811ZM82.1394 41.324C80.8974 41.324 79.7364 41.099 78.6564 40.649C77.5764 40.199 76.6269 39.5375 75.8079 38.6645C74.9889 37.7915 74.3454 36.716 73.8774 35.438C73.4094 34.151 73.1754 32.6795 73.1754 31.0235C73.1754 29.3585 73.4049 27.8915 73.8639 26.6225C74.3319 25.3445 74.9754 24.2735 75.7944 23.4095C76.6134 22.5455 77.5629 21.893 78.6429 21.452C79.7229 21.011 80.8884 20.7905 82.1394 20.7905C83.3814 20.7905 84.5424 21.011 85.6224 21.452C86.7114 21.893 87.6654 22.5455 88.4844 23.4095C89.3034 24.2735 89.9424 25.3445 90.4014 26.6225C90.8604 27.8915 91.0899 29.3585 91.0899 31.0235C91.0899 32.6795 90.8559 34.151 90.3879 35.438C89.9289 36.716 89.2854 37.7915 88.4574 38.6645C87.6384 39.5375 86.6844 40.199 85.5954 40.649C84.5154 41.099 83.3634 41.324 82.1394 41.324ZM82.1394 37.9625C82.9764 37.9625 83.7504 37.733 84.4614 37.274C85.1814 36.815 85.7574 36.077 86.1894 35.06C86.6214 34.034 86.8374 32.6885 86.8374 31.0235C86.8374 29.3495 86.6169 28.0085 86.1759 27.0005C85.7439 25.9925 85.1724 25.268 84.4614 24.827C83.7504 24.377 82.9764 24.152 82.1394 24.152C81.3024 24.152 80.5239 24.377 79.8039 24.827C79.0929 25.268 78.5214 25.9925 78.0894 27.0005C77.6574 28.0085 77.4414 29.3495 77.4414 31.0235C77.4414 32.6975 77.6574 34.043 78.0894 35.06C78.5214 36.077 79.0929 36.815 79.8039 37.274C80.5239 37.733 81.3024 37.9625 82.1394 37.9625ZM92.1116 41L97.0796 21.0605H103.708L108.649 41H104.356L100.387 23.612H100.414L96.4046 41H92.1116ZM95.6756 36.383V33.116H105.126V36.383H95.6756ZM122.079 24.3275H115.505L117.179 22.3295V41H113.007V22.3295L114.735 24.3275H108.12V21.0875H122.079V24.3275Z" fill="#1C1817"/>
<path d="M0 15.8159V47.4493L26 62V19L17 27V49L15 48V29L9 34V44L7.04238 43.3241V19.9426L27 8.25034V0L0 15.8159Z" fill="#E5F346"/>
</svg>
